<svg xmlns="http://www.w3.org/2000/svg" id="cancel" width="21.123" height="21.123" viewBox="0 0 21.123 21.123">
    <defs>
        <style>
            .cls-1{fill:#6d7177}
        </style>
    </defs>
    <g id="Group_4769" transform="translate(0)">
        <path id="Path_9955" d="M18.029 3.094A10.561 10.561 0 1 0 3.094 18.029 10.561 10.561 0 1 0 18.029 3.094zM17.18 17.18A9.36 9.36 0 0 1 3.943 3.943 9.36 9.36 0 1 1 17.18 17.18z" class="cls-1" transform="translate(0)"/>
        <path id="Path_9956" d="M138.41 129.1a.6.6 0 0 0-.849 0l-3.805 3.805-3.8-3.805a.6.6 0 0 0-.849.849l3.805 3.8-3.805 3.805a.6.6 0 0 0 .422 1.027.586.586 0 0 0 .422-.178l3.8-3.8 3.8 3.8a.6.6 0 0 0 .422.178.578.578 0 0 0 .422-.178.6.6 0 0 0 0-.849l-3.8-3.805 3.8-3.8a.6.6 0 0 0 .015-.849z" class="cls-1" transform="translate(-123.194 -123.194)"/>
    </g>
</svg>
